<svg width="348" height="349" viewBox="0 0 348 349" fill="none" xmlns="http://www.w3.org/2000/svg">
<path d="M0 0C114.84 0 229.68 0 348 0C348 114.892 348 229.784 348 348.158C233.16 348.158 118.32 348.158 0 348.158C0 233.266 0 118.374 0 0ZM103.78 17.4925C103.326 17.6909 102.872 17.8892 102.405 18.0935C78.4902 28.639 55.3182 46.2549 39.4814 67.1488C38.8117 67.9933 38.8117 67.9933 38.1286 68.8549C30.434 78.5896 23.9099 89.2324 18.587 100.439C18.2348 101.179 17.8782 101.916 17.5168 102.652C7.66825 122.756 2.32068 145.828 1.69206 168.154C1.6797 168.582 1.66734 169.01 1.6546 169.451C0.999033 196.714 6.62746 223.765 18.6126 248.281C18.8558 248.785 19.099 249.288 19.3496 249.807C24.9181 261.234 31.7292 272.05 39.8774 281.823C40.6192 282.714 41.3479 283.615 42.0767 284.516C45.5969 288.804 49.4276 292.768 53.3351 296.703C53.8214 297.195 54.3077 297.687 54.8088 298.193C58.1735 301.543 61.7022 304.588 65.4263 307.53C66.0368 308.018 66.0368 308.018 66.6596 308.515C102.824 337.184 148.471 349.888 194.256 344.757C205.37 343.394 216.091 340.888 226.736 337.437C227.241 337.275 227.746 337.113 228.267 336.946C244.884 331.532 260.73 323.113 274.677 312.609C275.149 312.258 275.149 312.258 275.631 311.899C279.368 309.113 282.953 306.214 286.383 303.051C287.49 302.035 288.618 301.059 289.765 300.089C294.898 295.6 299.709 290.704 303.932 285.349C305.209 283.736 306.544 282.183 307.884 280.621C328.239 256.209 340.534 224.397 344.052 192.982C344.132 192.34 344.132 192.34 344.213 191.685C344.826 186.11 344.753 180.492 344.757 174.89C344.757 174.337 344.758 173.784 344.758 173.214C344.739 155.557 342.02 138.74 336.72 121.884C336.504 121.195 336.504 121.195 336.284 120.492C326.688 90.3537 306.843 60.3634 281.446 41.1921C280.71 40.617 279.975 40.0409 279.24 39.464C254.614 20.2249 226.114 8.23864 195.151 3.94993C194.485 3.85078 194.485 3.85078 193.806 3.74962C163.47 -0.671345 131.589 5.20253 103.78 17.4925Z" fill="#1C2A90"/>
<path d="M52.4541 53.6064C132.302 53.6064 212.151 53.6064 294.418 53.6064C294.418 133.305 294.418 213.003 294.418 295.116C214.57 295.116 134.722 295.116 52.4541 295.116C52.4541 215.418 52.4541 135.72 52.4541 53.6064ZM91.3714 88.5915C91.0535 88.8942 90.7356 89.1969 90.4081 89.5088C71.004 108.069 58.6516 133.04 55.2742 159.69C55.221 160.1 55.1679 160.511 55.1131 160.933C51.9032 188.746 58.8313 218.023 75.0149 240.946C75.2693 241.307 75.5236 241.667 75.7857 242.038C79.4367 247.158 83.341 251.933 87.7177 256.447C88.5357 257.294 89.3403 258.152 90.1443 259.012C108.708 278.557 137.792 292.257 164.845 292.95C165.673 292.961 166.501 292.969 167.329 292.974C167.778 292.978 168.227 292.982 168.69 292.986C182.572 293.127 182.572 293.127 196.279 291.167C197.045 290.998 197.045 290.998 197.826 290.827C217.132 286.459 235.578 277.903 250.425 264.646C250.697 264.404 250.969 264.162 251.249 263.912C253.259 262.118 255.232 260.287 257.193 258.439C257.855 257.822 257.855 257.822 258.53 257.193C262.262 253.606 265.37 249.587 268.474 245.46C268.837 244.983 268.837 244.983 269.208 244.497C287.819 219.964 295.382 188.146 291.266 157.77C286.748 127.616 270.723 98.8395 246.157 80.4316C245.673 80.074 245.673 80.074 245.179 79.7092C244.246 79.0176 243.327 78.311 242.407 77.6014C198.026 43.9519 131.958 49.7459 91.3714 88.5915Z" fill="#1C2A90"/>
<line x1="175.151" y1="112.962" x2="124.151" y2="173.962" stroke="#1C2A90" stroke-width="3"/>
<line x1="174.5" y1="113" x2="174.5" y2="174" stroke="#1C2A90" stroke-width="3"/>
<line x1="175.151" y1="115.038" x2="226.151" y2="176.038" stroke="#1C2A90" stroke-width="3"/>
<line x1="175.278" y1="173.215" x2="210.278" y2="230.215" stroke="#1C2A90" stroke-width="3"/>
<line x1="174.5" y1="174" x2="174.5" y2="219" stroke="#1C2A90" stroke-width="3"/>
<line x1="124.468" y1="173.691" x2="136.468" y2="230.691" stroke="#1C2A90" stroke-width="3"/>
<line x1="124.324" y1="174.706" x2="100.324" y2="219.706" stroke="#1C2A90" stroke-width="3"/>
<circle cx="174" cy="113" r="12" fill="#85A8FF"/>
<circle cx="209" cy="231" r="12" fill="#85A8FF"/>
<circle cx="174" cy="219" r="12" fill="#85A8FF"/>
<circle cx="174" cy="174" r="12" fill="#85A8FF"/>
<circle cx="99" cy="219" r="12" fill="#85A8FF"/>
<circle cx="135" cy="231" r="12" fill="#85A8FF"/>
<circle cx="225" cy="174" r="12" fill="#85A8FF"/>
<circle cx="123" cy="174" r="12" fill="#85A8FF"/>
</svg>
