<?xml version="1.0" encoding="UTF-8"?>
<svg version="1.1" xmlns="http://www.w3.org/2000/svg" width="1772" height="826">
<path d="M0 0 C203.61 0 407.22 0 617 0 C617 203.61 617 407.22 617 617 C413.39 617 209.78 617 0 617 C0 413.39 0 209.78 0 0 Z M184 31 C183.19546387 31.35143066 182.39092773 31.70286133 181.56201172 32.06494141 C139.16216685 50.75360224 98.0785778 81.97207469 70 119 C68.81277344 120.49660156 68.81277344 120.49660156 67.6015625 122.0234375 C53.95906226 139.27524639 42.3918969 158.13613486 32.95458984 177.99609375 C32.33002966 179.30719094 31.69782398 180.61468018 31.05712891 181.91796875 C13.59572107 217.5453834 4.11453878 258.43387318 3 298 C2.97808594 298.75861328 2.95617187 299.51722656 2.93359375 300.29882812 C1.77127425 348.61257551 11.75041413 396.55248576 33 440 C33.43119141 440.89219238 33.86238281 441.78438477 34.30664062 442.70361328 C44.17955692 462.95439116 56.25542041 482.12205317 70.70214844 499.44189453 C72.01736104 501.02084239 73.30930511 502.61708247 74.6015625 504.21484375 C80.84285153 511.81376132 87.63463477 518.83882364 94.5625 525.8125 C95.42472168 526.68398682 96.28694336 527.55547363 97.17529297 528.45336914 C103.14095751 534.39022769 109.39720598 539.78543143 116 545 C117.08244995 545.86347046 117.08244995 545.86347046 118.18676758 546.74438477 C182.3063665 597.55217197 263.23720283 620.06612803 344.4140625 610.97265625 C364.11903249 608.55761113 383.12765377 604.11517024 402 598 C402.8957373 597.71318359 403.79147461 597.42636719 404.71435547 597.13085938 C434.1760566 587.53590727 462.27192075 572.61485184 487 554 C487.836521 553.37762451 487.836521 553.37762451 488.68994141 552.74267578 C495.31629195 547.80565551 501.67212235 542.66747204 507.75390625 537.0625 C509.71593864 535.26084243 511.71654749 533.53212157 513.75 531.8125 C522.85023909 523.85671288 531.38072393 515.18070602 538.8671875 505.69140625 C541.13242289 502.83289493 543.49906787 500.07945545 545.875 497.3125 C581.96463948 454.04976448 603.76271474 397.6720627 610 342 C610.14139404 340.86195923 610.14139404 340.86195923 610.28564453 339.70092773 C611.37211344 329.82066885 611.24386539 319.86475352 611.25 309.9375 C611.25067474 308.95712769 611.25134949 307.97675537 611.25204468 306.9666748 C611.21788351 275.67504275 606.39692747 245.87191072 597 216 C596.61787354 214.77966064 596.61787354 214.77966064 596.22802734 213.53466797 C579.21363715 160.1233503 544.02936123 106.97499655 499 73 C497.69540631 71.98071126 496.39213347 70.95973075 495.08984375 69.9375 C451.42779453 35.84227537 400.8970839 14.60037245 346 7 C344.81954102 6.82428467 344.81954102 6.82428467 343.61523438 6.64501953 C289.83125221 -1.1897467 233.30590123 9.21983514 184 31 Z " fill="#1c2a90" transform="translate(0,209)"/>
<path d="M0 0 C333.3 0 666.6 0 1010 0 C1010 28.38 1010 56.76 1010 86 C676.7 86 343.4 86 0 86 C0 57.62 0 29.24 0 0 Z " fill="#1c2a90" transform="translate(762,209)"/>
<path d="M0 0 C333.3 0 666.6 0 1010 0 C1010 28.05 1010 56.1 1010 85 C676.7 85 343.4 85 0 85 C0 56.95 0 28.9 0 0 Z " fill="#1c2a90" transform="translate(762,741)"/>
<path d="M0 0 C31.68 0 63.36 0 96 0 C107.0050335 36.08453162 117.98325566 72.17496617 128.8125 108.3125 C129.04563778 109.09048195 129.27877556 109.8684639 129.51897812 110.67002106 C132.34840475 120.1126237 135.17547221 129.55593077 138 139 C139.94336201 136.08495698 140.70515188 134.02658931 141.65380859 130.69580078 C141.97021301 129.59491623 142.28661743 128.49403168 142.61260986 127.35978699 C142.95443298 126.15051041 143.2962561 124.94123383 143.6484375 123.6953125 C144.01666568 122.40731663 144.38539172 121.11946301 144.75457764 119.83174133 C145.54962601 117.05514914 146.34148798 114.27767526 147.13092041 111.4994812 C148.38096299 107.10098229 149.63864047 102.70469157 150.89794922 98.30883789 C151.33036752 96.79909175 151.76277095 95.28934134 152.19515991 93.77958679 C152.52050783 92.64358819 152.52050783 92.64358819 152.85242844 91.48464012 C153.52223348 89.14488406 154.1913563 86.80493394 154.86026001 84.46492004 C159.25288171 69.09949215 163.67330774 53.74214792 168.1144886 38.39068604 C169.45170588 33.76834897 170.78574192 29.14511088 172.11722565 24.52111912 C172.94595578 21.6456053 173.7774445 18.77089489 174.60974884 15.8964138 C174.99722599 14.55622604 175.38359076 13.21571612 175.7687912 11.87487221 C176.29352015 10.04909175 176.82265637 8.22457963 177.35205078 6.40014648 C177.64782013 5.37565903 177.94358948 4.35117157 178.24832153 3.29563904 C179 1 179 1 180 0 C212.34 0 244.68 0 278 0 C278 74.25 278 148.5 278 225 C257.87 225 237.74 225 217 225 C217.53997658 203.36683283 218.19596962 181.74300456 218.97265625 160.1171875 C219.01640759 158.8955616 219.06015892 157.6739357 219.10523605 156.41529083 C219.51507521 144.97903617 219.9284513 133.54291129 220.34594727 122.10693359 C220.57693855 115.77495499 220.80457165 109.44286256 221.03021049 103.11069107 C221.11544682 100.737178 221.20192773 98.36370922 221.28978157 95.9902916 C221.79558873 82.31958667 222.12390204 68.6804504 222 55 C211.66106633 85.88087608 211.66106633 85.88087608 201.53262329 116.83120728 C194.3503171 139.02900048 186.992829 161.16844306 179.6254425 183.30534363 C178.68760101 186.12469634 177.75092479 188.94443371 176.8145752 191.76428223 C175.33002468 196.23451661 173.84239661 200.70371504 172.35235786 205.17212296 C171.79383049 206.84855033 171.23631171 208.52531409 170.67982292 210.20241928 C169.91264951 212.51366112 169.14176321 214.82363071 168.36987305 217.13330078 C168.14296154 217.81965733 167.91605003 218.50601387 167.68226242 219.2131691 C166.11418013 223.88581987 166.11418013 223.88581987 165 225 C147.51 225 130.02 225 112 225 C93.19 168.57 74.38 112.14 55 54 C56.64051135 100.54876103 56.64051135 100.54876103 58.29101562 147.09716797 C58.60839844 156.18383789 58.60839844 156.18383789 58.75671387 160.46316528 C58.85867707 163.39627178 58.96311876 166.32927766 59.06921387 169.26223755 C59.20582913 173.04134663 59.3378132 176.82059445 59.46689129 180.59996819 C59.53590237 182.59032129 59.6092577 184.58052244 59.68296051 186.57070732 C60.11263569 199.39783856 60 212.13784449 60 225 C40.2 225 20.4 225 0 225 C0 150.75 0 76.5 0 0 Z " fill="#1c2a90" transform="translate(780,409)"/>
<path d="M0 0 C141.57 0 283.14 0 429 0 C429 141.24 429 282.48 429 428 C287.43 428 145.86 428 0 428 C0 286.76 0 145.52 0 0 Z M69 62 C68.43635742 62.53641113 67.87271484 63.07282227 67.29199219 63.62548828 C32.88879778 96.51843754 10.98815536 140.77048475 5 188 C4.9057373 188.72678955 4.81147461 189.4535791 4.71435547 190.20239258 C-0.97666336 239.49231686 11.30668798 291.37660875 40 332 C40.45101074 332.6388916 40.90202148 333.2777832 41.36669922 333.93603516 C47.83983111 343.00894166 54.76206888 351.47121831 62.52197266 359.47070312 C63.97218778 360.97122304 65.39878417 362.49159414 66.82421875 364.015625 C99.73688173 398.65279618 151.30262266 422.93251607 199.26855469 424.16113281 C200.73626582 424.18059589 202.20406078 424.19439538 203.671875 424.203125 C204.46809265 424.21018463 205.2643103 424.21724426 206.08465576 424.22451782 C230.69821768 424.4745562 230.69821768 424.4745562 255 421 C256.35738281 420.70198486 256.35738281 420.70198486 257.7421875 420.39794922 C291.97161394 412.65806367 324.67693376 397.49531189 351 374 C351.48227051 373.57122559 351.96454102 373.14245117 352.46142578 372.70068359 C356.02562479 369.52009575 359.52324397 366.27589804 363 363 C364.17369141 361.90751953 364.17369141 361.90751953 365.37109375 360.79296875 C371.98721959 354.43629882 377.49713387 347.31286398 383 340 C383.64437012 339.15477783 383.64437012 339.15477783 384.30175781 338.29248047 C417.29937524 294.81640486 430.70761869 238.42812968 423.41040039 184.59619141 C415.4006321 131.15902 386.98862671 80.16125318 343.43359375 47.5390625 C342.57483643 46.90532715 342.57483643 46.90532715 341.69873047 46.25878906 C340.04490162 45.03327289 338.41465656 43.78103536 336.78515625 42.5234375 C258.09788952 -17.10961953 140.95942653 -6.84151332 69 62 Z " fill="#1c2a90" transform="translate(93,304)"/>
<path d="M0 0 C30.69 0 61.38 0 93 0 C96.526875 11.611875 100.05375 23.22375 103.6875 35.1875 C105.9060817 42.4909366 108.12468588 49.79436623 110.34375 57.09765625 C110.7558094 58.45380885 110.7558094 58.45380885 111.17619324 59.83735847 C116.25197213 76.54202966 121.33214497 93.24536059 126.41601562 109.9475708 C127.47570143 113.42902344 128.53515563 116.91054652 129.59454346 120.39208984 C133.86168606 134.41521709 138.13239577 148.43724396 142.41130066 162.45678711 C144.1280034 168.08160908 145.84339098 173.70683189 147.55846882 179.33214951 C148.95671011 183.91783596 150.35670159 188.50298311 151.7580471 193.08772182 C152.62092993 195.91228068 153.48213922 198.73734777 154.34289551 201.56255531 C154.92978134 203.48704303 155.51868917 205.41091377 156.10766602 207.33476257 C156.46103027 208.49570938 156.81439453 209.65665619 157.1784668 210.8527832 C157.48374802 211.85267776 157.78902924 212.85257233 158.1035614 213.88276672 C159.16192226 217.56306084 160.07122179 221.28488715 161 225 C140.21 225 119.42 225 98 225 C96.185 219.121875 94.37 213.24375 92.5 207.1875 C91.63858398 204.40928833 91.63858398 204.40928833 90.75976562 201.57495117 C90.30826041 200.10605945 89.85706719 198.63707178 89.40625 197.16796875 C89.16874023 196.40601196 88.93123047 195.64405518 88.68652344 194.85900879 C87.75280226 191.8047098 87 189.21329864 87 186 C60.6 186 34.2 186 7 186 C6.67 188.31 6.34 190.62 6 193 C5.35012863 195.58108173 4.67148724 198.12869449 3.93359375 200.68359375 C3.757677 201.30560669 3.58176025 201.92761963 3.4005127 202.56848145 C2.75113222 204.85956512 2.09387056 207.14840911 1.4375 209.4375 C-0.026875 214.573125 -1.49125 219.70875 -3 225 C-24.12 225 -45.24 225 -67 225 C-64.74998486 214.87493188 -64.74998486 214.87493188 -63.69268799 211.34680176 C-63.45252803 210.53977342 -63.21236807 209.73274508 -62.96493053 208.90126133 C-62.70741166 208.04761462 -62.44989279 207.19396791 -62.18457031 206.31445312 C-61.90706342 205.38531318 -61.62955652 204.45617323 -61.34364033 203.49887753 C-60.42483873 200.4254169 -59.50151091 197.35333613 -58.578125 194.28125 C-57.92307146 192.09358977 -57.26828718 189.90584889 -56.61375427 187.71803284 C-54.8595909 181.85768643 -53.10142209 175.99854896 -51.34237289 170.13966751 C-49.88301922 165.27726001 -48.42594652 160.41417034 -46.96890926 155.55106831 C-42.31920173 140.0320638 -37.66126097 124.51553776 -33 109 C-32.69582909 107.98743385 -32.39165817 106.97486771 -32.07826996 105.93161774 C-28.28586611 93.30721672 -24.4894548 80.68402797 -20.6875 68.0625 C-20.47406448 67.35380768 -20.26062897 66.64511536 -20.04072571 65.91494751 C-19.41629101 63.84169269 -18.7916738 61.76849294 -18.16699219 59.6953125 C-17.81634705 58.53153076 -17.4657019 57.36774902 -17.10443115 56.16870117 C-11.44596158 37.43214236 -5.71955172 18.7185329 0 0 Z M47 47 C41.92099714 64.3009279 36.92928963 81.62627084 31.99390602 98.96865082 C30.91008401 102.77703135 29.82408019 106.58476094 28.7331543 110.39111328 C27.65709786 114.14570582 26.58614739 117.90171872 25.51888847 121.65882111 C25.11599537 123.07390501 24.71131366 124.48848101 24.3047657 125.90251923 C23.74262386 127.85906579 23.18766927 129.81767305 22.63305664 131.77636719 C22.15842735 133.43983185 22.15842735 133.43983185 21.67420959 135.13690186 C20.84719126 138.1586826 20.84719126 138.1586826 21 142 C38.82 142 56.64 142 75 142 C71.9371875 131.295625 71.9371875 131.295625 68.8125 120.375 C61.82366924 95.93112207 54.89816928 71.46959948 48 47 C47.67 47 47.34 47 47 47 Z " fill="#1c2a90" transform="translate(1145,409)"/>
<path d="M0 0 C30.69 0 61.38 0 93 0 C104.32657973 36.16782845 115.35681432 72.42128713 126.35453796 108.69003296 C129.86180674 120.25523749 133.37706774 131.81798775 136.8984375 143.37890625 C137.13478598 144.15493572 137.37113445 144.93096519 137.614645 145.73051071 C139.64846911 152.40834584 141.68252776 159.08610942 143.7180481 165.76342773 C146.28433873 174.18227286 148.84666593 182.60230585 151.40090179 191.02481842 C151.81209062 192.38047695 152.22346196 193.73608012 152.63498688 195.09163666 C153.92246256 199.33280847 155.20692264 203.5748724 156.48710823 207.81825066 C156.89104231 209.15572177 157.29590841 210.49291178 157.7017498 211.82980537 C158.25959493 213.6682153 158.81361253 215.50778535 159.36743164 217.34741211 C159.68361954 218.39368271 159.99980743 219.43995331 160.32557678 220.51792908 C161 223 161 223 161 225 C140.54 225 120.08 225 99 225 C97.1123858 219.96636213 95.33072794 215.05889494 93.73828125 209.9453125 C93.54276169 209.31769012 93.34724213 208.69006775 93.14579773 208.04342651 C92.73885007 206.73471811 92.3330794 205.42564315 91.9284668 204.11621094 C91.30708689 202.10750124 90.68011654 200.10059205 90.05273438 198.09375 C89.65591547 196.81520795 89.25941912 195.53656573 88.86328125 194.2578125 C88.50532471 193.1042627 88.14736816 191.95071289 87.77856445 190.76220703 C87 188 87 188 87 186 C47.895 186.495 47.895 186.495 8 187 C4.37 199.54 0.74 212.08 -3 225 C-24.12 225 -45.24 225 -67 225 C-63.62556702 211.50226808 -63.62556702 211.50226808 -61.87231445 205.71655273 C-61.67876436 205.07487278 -61.48521427 204.43319283 -61.28579903 203.77206802 C-60.64759319 201.65843677 -60.0054058 199.54603744 -59.36328125 197.43359375 C-58.89433058 195.88272128 -58.42567664 194.33175905 -57.95729065 192.78071594 C-56.94492814 189.42989352 -55.93095729 186.07956389 -54.91571045 182.72961426 C-52.41926032 174.49133122 -49.93184149 166.25031992 -47.4444809 158.00928879 C-46.85003398 156.03980165 -46.25549443 154.07034247 -45.66086578 152.10091019 C-36.62764343 122.1795015 -27.69264426 92.22863662 -18.74802685 62.28065014 C-17.41554789 57.81966186 -16.08266348 53.35879477 -14.74973869 48.89793968 C-13.59309535 45.02606897 -12.43746435 41.15389644 -11.28215122 37.28162861 C-7.56155444 24.84134354 -3.78086045 12.42282718 0 0 Z M47 46 C43.60545452 58.07260277 40.21507877 70.14636785 36.83006287 82.22164631 C35.25823559 87.82827719 33.68495962 93.43449318 32.10839844 99.03979492 C30.5877814 104.44639569 29.07093645 109.85404151 27.55673218 115.26244164 C26.97755946 117.3285429 26.39701464 119.39426002 25.81509399 121.459589 C25.0020302 124.34616777 24.19379856 127.23405782 23.38671875 130.12231445 C23.14359955 130.98114731 22.90048035 131.83998016 22.6499939 132.72483826 C22.32184189 133.90479874 22.32184189 133.90479874 21.98706055 135.1085968 C21.79532761 135.7916454 21.60359467 136.474694 21.40605164 137.17844105 C20.89121291 139.17697729 20.89121291 139.17697729 21 142 C38.82 142 56.64 142 75 142 C71.87433101 129.37084995 71.87433101 129.37084995 68.43457031 116.83984375 C68.20965408 116.05722168 67.98473785 115.27459961 67.75300598 114.46826172 C67.03067916 111.95724028 66.30446878 109.44736208 65.578125 106.9375 C65.06793152 105.16681855 64.55798751 103.3960652 64.04827881 101.62524414 C62.72246284 97.02158249 61.39331841 92.41888868 60.06341553 87.81640625 C58.70037328 83.09694791 57.34056801 78.37655714 55.98046875 73.65625 C53.32343283 64.43659818 50.66287044 55.21796822 48 46 C47.67 46 47.34 46 47 46 Z " fill="#1c2a90" transform="translate(1608,409)"/>
<path d="M0 0 C20.13 0 40.26 0 61 0 C61.01458252 4.61274902 61.02916504 9.22549805 61.04418945 13.97802734 C61.09454517 29.22515173 61.16099271 44.4721747 61.23571491 59.71919823 C61.28062291 68.96268954 61.32004905 78.20614276 61.34643555 87.44970703 C61.36945614 95.50922373 61.40289939 103.56861936 61.44870156 111.62803996 C61.47257913 115.89288716 61.49134364 120.15761486 61.49761391 124.42252731 C61.5036896 128.44285816 61.5237784 132.46288346 61.55427551 136.48310089 C61.56301612 137.95275623 61.56678663 139.42245156 61.56500816 140.89213181 C61.51605437 154.69634671 61.51605437 154.69634671 67.1875 166.9375 C80.05810012 176.37594009 102.14950468 174.42543205 117.125 172.1875 C122.02045782 171.31703106 125.5711522 169.34719936 129.1875 165.9375 C134.26071249 157.71539699 133.30556804 147.14495557 133.31884766 137.81982422 C133.32816272 136.31097384 133.3383337 134.80212854 133.34928894 133.29328918 C133.3764253 129.22583997 133.3916894 125.15842506 133.40471697 121.09090948 C133.42041967 116.82945699 133.44718688 112.56807384 133.4727478 108.30667114 C133.51940981 100.24989784 133.55621453 92.19311132 133.58942068 84.13627255 C133.62773129 74.95842134 133.67711785 65.78064 133.72740483 56.60284781 C133.83053749 37.73527719 133.91839642 18.86767687 134 0 C154.13 0 174.26 0 195 0 C195.04525202 20.73273359 195.08205021 41.46542682 195.10362434 62.19819736 C195.11391052 71.82607868 195.12791966 81.45392699 195.15087891 91.08178711 C195.17089457 99.47931391 195.18373573 107.8768168 195.18817699 116.2743668 C195.1907706 120.7154432 195.19681048 125.15645121 195.21146011 129.59750557 C195.22517363 133.78927963 195.22919524 137.98095802 195.22621536 142.17275238 C195.22675944 143.69999908 195.23065403 145.22724945 195.23841095 146.75447655 C195.33973713 167.75881197 193.28906675 190.93250985 178.21875 207.02734375 C156.73084233 226.13190954 126.99672232 227.22378463 99.6875 227.1875 C98.42901749 227.18659363 98.42901749 227.18659363 97.14511108 227.18566895 C34.69268531 227.0637772 34.69268531 227.0637772 15 208 C-1.34910126 191.12029911 -0.1694789 165.50044339 -0.11352539 143.60961914 C-0.11324245 142.031072 -0.11340333 140.45252473 -0.1139679 138.87397766 C-0.11425172 134.63945192 -0.10842285 130.40495521 -0.10139394 126.17043614 C-0.09509057 121.72621007 -0.09455113 117.28198315 -0.09336853 112.8377533 C-0.09027562 104.44466226 -0.08209007 96.05158443 -0.07201904 87.65849918 C-0.06079411 78.09364348 -0.05533146 68.5287871 -0.05032361 58.96392643 C-0.03990548 39.3092753 -0.02158574 19.65464226 0 0 Z " fill="#1c2a90" transform="translate(1326,409)"/>
<path d="M0 0 C10.23 0 20.46 0 31 0 C34.96 14.52 38.92 29.04 43 44 C45.06544527 38.49214596 46.82641492 33.26252249 48.2265625 27.59765625 C48.41971039 26.83448593 48.61285828 26.07131561 48.81185913 25.28501892 C49.42056804 22.87857819 50.02336777 20.4707189 50.625 18.0625 C51.2341766 15.62939676 51.84470898 13.19667415 52.45956421 10.76499939 C52.84027883 9.25899228 53.21768214 7.75214346 53.59146118 6.24440002 C54.88753049 1.11246951 54.88753049 1.11246951 56 0 C66.23 0 76.46 0 87 0 C87 25.41 87 50.82 87 77 C80.4 77 73.8 77 67 77 C67.33 60.17 67.66 43.34 68 26 C66.92878906 29.59777344 65.85757813 33.19554687 64.75390625 36.90234375 C63.71878708 40.37091729 62.68256815 43.83916048 61.64624023 47.30737305 C60.92438393 49.72532335 60.2036786 52.14361756 59.48413086 54.56225586 C58.45205388 58.03068798 57.41589778 61.4978783 56.37890625 64.96484375 C56.05596085 66.05337143 55.73301544 67.14189911 55.40028381 68.26341248 C54.94993019 69.76485558 54.94993019 69.76485558 54.49047852 71.29663086 C54.22622574 72.18265488 53.96197296 73.06867889 53.68971252 73.98155212 C53 76 53 76 52 77 C49.13732433 77.07325168 46.299281 77.09238205 43.4375 77.0625 C42.63119141 77.05798828 41.82488281 77.05347656 40.99414062 77.04882812 C38.99606244 77.03700518 36.99802217 77.01906914 35 77 C33.84551595 73.29138259 32.69203498 69.58245453 31.53930664 65.87329102 C30.96482864 64.02540622 30.38965816 62.17773674 29.81445312 60.33007812 C26.15987879 48.56787668 22.58643209 36.78399116 19 25 C19.33 42.16 19.66 59.32 20 77 C13.4 77 6.8 77 0 77 C0 51.59 0 26.18 0 0 Z " fill="#1c2a90" transform="translate(582,23)"/>
<path d="M0 0 C10.56 0 21.12 0 32 0 C38.28437166 17.25708408 44.2473023 34.55928158 50 52 C50 34.84 50 17.68 50 0 C56.6 0 63.2 0 70 0 C70 25.41 70 50.82 70 77 C59.11 77 48.22 77 37 77 C31.06 59.18 25.12 41.36 19 23 C19 40.82 19 58.64 19 77 C12.73 77 6.46 77 0 77 C0 51.59 0 26.18 0 0 Z " fill="#1c2a90" transform="translate(1314,23)"/>
<path d="M0 0 C10.56 0 21.12 0 32 0 C35.10883353 7.46120047 38.04894934 14.71511118 40.55078125 22.359375 C40.82096069 23.17293457 41.09114014 23.98649414 41.36950684 24.82470703 C42.35551214 27.79814883 43.33357631 30.77421926 44.3125 33.75 C47.6228125 43.77375 47.6228125 43.77375 51 54 C51 36.18 51 18.36 51 0 C57.27 0 63.54 0 70 0 C70 25.41 70 50.82 70 77 C59.44 77 48.88 77 38 77 C35.31897625 70.29744061 32.79957061 63.67581175 30.546875 56.8359375 C30.27568848 56.02036377 30.00450195 55.20479004 29.72509766 54.36450195 C28.73007302 51.3691039 27.74032967 48.37195356 26.75 45.375 C24.5225 38.65125 22.295 31.9275 20 25 C20 42.16 20 59.32 20 77 C13.4 77 6.8 77 0 77 C0 51.59 0 26.18 0 0 Z " fill="#1c2a90" transform="translate(34,23)"/>
<path d="M0 0 C6.579375 -0.04125 13.15875 -0.0825 19.9375 -0.125 C21.99605225 -0.14320801 24.05460449 -0.16141602 26.17553711 -0.18017578 C27.83447002 -0.18602517 29.49340583 -0.19111966 31.15234375 -0.1953125 C31.99156372 -0.20554443 32.83078369 -0.21577637 33.69543457 -0.22631836 C41.97564063 -0.22872575 49.41284918 0.61051297 56 6 C65.46760467 15.89795034 64.32772686 29.44151857 64.1484375 42.34765625 C63.84713765 54.18478897 63.37483745 64.62516255 54.625 73.375 C48.2133558 77.34411308 41.79416051 77.27536338 34.47265625 77.1953125 C33.59508667 77.19329834 32.71751709 77.19128418 31.81335449 77.18920898 C28.56301581 77.17881509 25.31275216 77.15089295 22.0625 77.125 C11.1415625 77.063125 11.1415625 77.063125 0 77 C0 51.59 0 26.18 0 0 Z M19 19 C19 31.87 19 44.74 19 58 C22.2175 58.103125 25.435 58.20625 28.75 58.3125 C29.75772461 58.35802002 30.76544922 58.40354004 31.80371094 58.45043945 C37.18343513 58.59584139 37.18343513 58.59584139 41.578125 55.73046875 C44.53830459 50.04594805 44.21706602 44.47377399 44.25 38.1875 C44.270625 37.21490234 44.29125 36.24230469 44.3125 35.24023438 C44.34423728 29.38073815 43.89178723 25.14485446 41 20 C38.59940183 18.79970092 37.10639351 18.88540257 34.4296875 18.90234375 C33.62257324 18.90484131 32.81545898 18.90733887 31.98388672 18.90991211 C30.44498779 18.92356812 30.44498779 18.92356812 28.875 18.9375 C25.61625 18.958125 22.3575 18.97875 19 19 Z " fill="#1c2a90" transform="translate(938,23)"/>
<path d="M0 0 C2.02341579 0.00316121 4.04536761 -0.02035464 6.06860352 -0.0456543 C21.21992796 -0.05318852 21.21992796 -0.05318852 26.60107422 4.6262207 C32.36639591 10.9564472 32.312798 17.21993095 32.09399414 25.31567383 C25.82399414 25.31567383 19.55399414 25.31567383 13.09399414 25.31567383 C12.43399414 23.33567383 11.77399414 21.35567383 11.09399414 19.31567383 C9.27991281 18.31743933 9.27991281 18.31743933 7.09399414 18.31567383 C6.31282227 18.26024414 5.53165039 18.20481445 4.72680664 18.14770508 C-2.31737115 18.05887384 -2.31737115 18.05887384 -8.90600586 20.31567383 C-10.87226999 24.09993196 -11.16274848 27.308948 -11.17163086 31.53442383 C-11.17420898 32.71391602 -11.17678711 33.8934082 -11.17944336 35.10864258 C-11.17170898 36.33196289 -11.16397461 37.5552832 -11.15600586 38.81567383 C-11.16374023 40.03899414 -11.17147461 41.26231445 -11.17944336 42.52270508 C-11.17557617 44.29194336 -11.17557617 44.29194336 -11.17163086 46.09692383 C-11.169375 47.17006836 -11.16711914 48.24321289 -11.16479492 49.34887695 C-10.89815768 52.40564652 -10.27249076 54.57904707 -8.90600586 57.31567383 C-5.86660608 59.52857016 -3.09477462 59.58594179 0.59399414 59.56567383 C2.00165039 59.5734082 2.00165039 59.5734082 3.43774414 59.58129883 C6.2380583 59.30126741 7.81393329 58.9601425 10.09399414 57.31567383 C11.21655904 55.15286101 11.21655904 55.15286101 11.84399414 52.69067383 C12.46274414 50.52504883 12.46274414 50.52504883 13.09399414 48.31567383 C8.80399414 48.31567383 4.51399414 48.31567383 0.09399414 48.31567383 C0.09399414 43.36567383 0.09399414 38.41567383 0.09399414 33.31567383 C10.65399414 33.31567383 21.21399414 33.31567383 32.09399414 33.31567383 C32.15586914 37.58504883 32.21774414 41.85442383 32.28149414 46.25317383 C32.32246216 48.24465454 32.32246216 48.24465454 32.36425781 50.27636719 C32.42154074 58.486304 31.99252286 65.50617894 26.90649414 72.19067383 C21.03146706 76.62958318 14.76881356 77.83470896 7.59399414 78.12817383 C6.82007324 78.16313965 6.04615234 78.19810547 5.2487793 78.23413086 C-4.57898284 78.55244705 -16.26026171 78.89770079 -24.42944336 72.72583008 C-30.00935761 67.39686435 -31.86710186 60.69735802 -32.1965332 53.18554688 C-32.2228356 51.73298804 -32.23753537 50.28018285 -32.24194336 48.82739258 C-32.25192856 47.65162407 -32.25192856 47.65162407 -32.26211548 46.45210266 C-32.27217439 44.80419232 -32.27693461 43.15624179 -32.27661133 41.50830078 C-32.28097711 39.0195633 -32.31734606 36.53261346 -32.35522461 34.04418945 C-32.49542961 14.60020041 -32.49542961 14.60020041 -25.97973633 7.09765625 C-18.55494839 -0.16279843 -9.88331653 -0.03229451 0 0 Z " fill="#1c2a90" transform="translate(1629.906005859375,22.684326171875)"/>
<path d="M0 0 C1.07636719 -0.01160156 2.15273437 -0.02320312 3.26171875 -0.03515625 C11.37752939 -0.00550043 17.92835145 1.08375376 24.8125 5.5 C33.51762993 14.81246457 32.70304709 27.06016351 32.75 39.0625 C32.770625 40.36123047 32.79125 41.65996094 32.8125 42.99804688 C32.85027889 52.4002687 32.61038854 62.41679178 27 70.375 C20.25716024 77.13432592 10.50786098 78.03561219 1.41796875 78.40625 C-9.97601907 78.31537074 -19.41581358 77.29474895 -27.8125 69.125 C-33.20807943 60.33220389 -32.99810723 51.45671656 -32.94604492 41.4921875 C-32.93754174 39.01217365 -32.96634924 36.5344745 -32.99804688 34.0546875 C-33.08304624 15.14807757 -33.08304624 15.14807757 -27.00878906 7.49658203 C-19.46381429 0.28389889 -9.92836113 -0.10701228 0 0 Z M-10.5 21.375 C-12.72256779 24.80578306 -12.7575486 27.7164146 -12.765625 31.75 C-12.76820312 32.98234375 -12.77078125 34.2146875 -12.7734375 35.484375 C-12.76570313 36.76828125 -12.75796875 38.0521875 -12.75 39.375 C-12.75773437 40.65890625 -12.76546875 41.9428125 -12.7734375 43.265625 C-12.77085938 44.49796875 -12.76828125 45.7303125 -12.765625 47 C-12.76336914 48.12664062 -12.76111328 49.25328125 -12.75878906 50.4140625 C-12.5054444 53.31270786 -12.07174145 54.95742319 -10.5 57.375 C-7.20968311 59.71776531 -4.0205066 59.7042427 -0.0625 59.75 C1.60619141 59.79253906 1.60619141 59.79253906 3.30859375 59.8359375 C7.18734595 59.27572604 8.7950138 58.17326158 11.5 55.375 C13.3161781 50.18297598 12.68442451 44.35958256 12.6875 38.9375 C12.70586914 37.23883789 12.70586914 37.23883789 12.72460938 35.50585938 C12.72654297 34.41208984 12.72847656 33.31832031 12.73046875 32.19140625 C12.73457764 31.19568604 12.73868652 30.19996582 12.74291992 29.17407227 C12.38656635 25.06794799 11.42389121 22.29889121 8.5 19.375 C2.3758182 17.32043578 -5.46692686 16.971061 -10.5 21.375 Z " fill="#1c2a90" transform="translate(1557.5,22.625)"/>
<path d="M0 0 C1.06863281 -0.02449219 2.13726562 -0.04898437 3.23828125 -0.07421875 C11.15025179 -0.10305947 19.22293525 0.82391647 25.65136719 5.86645508 C33.74425063 14.45247544 33.22532522 25.3618237 33.14111328 36.36767578 C33.12503618 38.86936988 33.14101476 41.36944887 33.16015625 43.87109375 C33.17435314 54.17835504 33.16735702 63.91665237 25.58203125 71.87109375 C16.86968977 79.02301586 4.60821602 78.82619842 -6.109375 78.12109375 C-14.25482711 77.15098089 -21.44517187 75.75272146 -27.125 69.5 C-33.22798126 60.52502757 -32.43175505 49.50106651 -32.4375 39.0625 C-32.44974609 37.90298828 -32.46199219 36.74347656 -32.47460938 35.54882812 C-32.49218181 25.12837286 -32.325047 14.64225105 -25.25 6.375 C-17.59455709 0.05093847 -9.50572599 0.01130288 0 0 Z M-9.25 20.375 C-12.66071113 26.47444691 -12.70435259 31.98895826 -12.625 38.875 C-12.63660156 39.88175781 -12.64820313 40.88851562 -12.66015625 41.92578125 C-12.63696288 47.82462759 -12.20311747 52.21744272 -9.25 57.375 C-5.71575288 59.73116475 -4.06355898 59.6731228 0.125 59.6875 C1.24648438 59.70425781 2.36796875 59.72101563 3.5234375 59.73828125 C7.07508175 59.33839879 8.94087299 58.55590406 11.75 56.375 C13.41118719 51.39143844 12.93593351 46.19671141 12.93530273 40.97827148 C12.93748849 38.94819146 12.95565597 36.91865577 12.97460938 34.88867188 C12.97654297 33.60669922 12.97847656 32.32472656 12.98046875 31.00390625 C12.98663208 29.2415564 12.98663208 29.2415564 12.99291992 27.44360352 C12.757952 24.475451 12.38726024 22.82783108 10.75 20.375 C5.55099575 17.12562234 -4.16340427 16.82979692 -9.25 20.375 Z " fill="#1c2a90" transform="translate(497.25,22.625)"/>
<path d="M0 0 C1.07636719 -0.01160156 2.15273437 -0.02320312 3.26171875 -0.03515625 C11.05090026 -0.00669395 17.63189419 0.96817861 24.3125 5.125 C29.13033158 10.08048391 31.56740996 15.62787469 31.69287109 22.52587891 C31.70893402 23.33417145 31.72499695 24.14246399 31.74154663 24.97525024 C31.7864609 28.67408011 31.82708362 32.37273771 31.85009766 36.07177734 C31.8666089 38.01330594 31.89383471 39.95477497 31.93212891 41.89599609 C32.34962326 63.20272992 32.34962326 63.20272992 26.5 70.375 C18.40227509 78.0945159 7.18866065 78.45474753 -3.5 78.375 C-13.62136932 77.65276156 -21.5467783 76.26784625 -28.5 68.375 C-31.44446576 64.06346085 -32.60327013 60.48552713 -32.67700195 55.30004883 C-32.68983719 54.50854935 -32.70267242 53.71704987 -32.71589661 52.90156555 C-32.72328354 52.05361923 -32.73067047 51.20567291 -32.73828125 50.33203125 C-32.746353 49.44899826 -32.75442474 48.56596527 -32.76274109 47.65617371 C-32.77655638 45.78764799 -32.78728993 43.9190973 -32.79516602 42.05053711 C-32.80666827 40.15072166 -32.82709221 38.25093807 -32.85668945 36.35131836 C-32.89961598 33.59466774 -32.91557063 30.83897572 -32.92578125 28.08203125 C-32.94328934 27.24420609 -32.96079742 26.40638092 -32.97883606 25.54316711 C-32.95439636 18.79945101 -31.39762218 12.70689829 -26.88659668 7.51979065 C-19.36228711 0.2550683 -9.9507244 -0.10725332 0 0 Z M-10.5 20.375 C-13.72771055 25.24256703 -12.83416174 31.17944421 -12.81567383 36.79223633 C-12.81251524 38.8027984 -12.83598616 40.8118854 -12.86132812 42.82226562 C-12.86197266 44.09650391 -12.86261719 45.37074219 -12.86328125 46.68359375 C-12.86626221 47.84689209 -12.86924316 49.01019043 -12.87231445 50.20874023 C-12.45977214 53.71710824 -11.6568248 55.59696917 -9.5 58.375 C-6.20907406 59.47197531 -3.58887841 59.6121983 -0.125 59.6875 C0.99648437 59.72488281 2.11796875 59.76226562 3.2734375 59.80078125 C7.21895335 59.28012601 8.79377764 58.26327732 11.5 55.375 C12.94336908 50.00233356 12.72217594 44.52307595 12.75 39 C12.770625 37.98421875 12.79125 36.9684375 12.8125 35.921875 C12.84350487 29.95343792 12.45129479 25.6130123 9.5 20.375 C4.41340427 16.82979692 -5.30099575 17.12562234 -10.5 20.375 Z " fill="#1c2a90" transform="translate(1427.5,22.625)"/>
<path d="M0 0 C2.06975081 -0.00966722 4.13849153 -0.04068502 6.20800781 -0.07226562 C8.18414062 -0.08 8.18414062 -0.08 10.20019531 -0.08789062 C11.4012793 -0.09723633 12.60236328 -0.10658203 13.83984375 -0.11621094 C19.28793189 0.43847586 23.08842507 2.07133215 27.15332031 5.86523438 C31.49811606 11.62494716 31.34082031 18.28937433 31.34082031 25.24023438 C25.07082031 25.24023438 18.80082031 25.24023438 12.34082031 25.24023438 C11.68082031 23.26023437 11.02082031 21.28023437 10.34082031 19.24023438 C7.76749131 17.95356987 5.83858993 18.07198886 2.96582031 18.05273438 C2.00933594 18.03855469 1.05285156 18.024375 0.06738281 18.00976562 C-2.68927985 18.24277866 -4.30865364 18.83103274 -6.65917969 20.24023438 C-6.65917969 22.88023438 -6.65917969 25.52023438 -6.65917969 28.24023438 C-6.08063232 28.28510986 -5.50208496 28.32998535 -4.90600586 28.3762207 C24.39317149 30.71700664 24.39317149 30.71700664 30.34082031 37.24023438 C32.93528539 42.66696171 32.70841215 47.76972871 32.71582031 53.67773438 C32.7403125 54.70189453 32.76480469 55.72605469 32.79003906 56.78125 C32.81399255 62.94927421 32.45455198 66.55073179 28.34082031 71.24023438 C22.29968138 77.11809929 15.11475215 77.58446026 7.09082031 77.92773438 C5.83338013 77.98417114 5.83338013 77.98417114 4.55053711 78.04174805 C-14.64963984 78.77843213 -14.64963984 78.77843213 -21.65917969 73.24023438 C-27.0943624 66.30405644 -26.74975527 59.66376315 -26.65917969 51.24023438 C-20.71917969 51.24023438 -14.77917969 51.24023438 -8.65917969 51.24023438 C-7.99917969 53.55023438 -7.33917969 55.86023438 -6.65917969 58.24023438 C-3.31027348 59.35653644 -0.68378708 59.40788861 2.84082031 59.42773438 C3.98550781 59.44191406 5.13019531 59.45609375 6.30957031 59.47070312 C9.51844416 59.47572494 9.51844416 59.47572494 12.34082031 57.24023438 C12.70379967 55.26276316 12.70379967 55.26276316 12.52832031 53.11523438 C12.46644531 51.83648437 12.40457031 50.55773437 12.34082031 49.24023438 C9.62441594 48.33476625 7.59383325 48.01861699 4.77050781 47.81054688 C3.87332031 47.73707031 2.97613281 47.66359375 2.05175781 47.58789062 C0.18502691 47.44132911 -1.68216838 47.30054875 -3.54980469 47.16601562 C-18.73427997 45.88982753 -18.73427997 45.88982753 -23.65917969 40.30273438 C-27.18168811 34.90889336 -26.90306 29.76664845 -26.97167969 23.49023438 C-27.00068359 22.62140625 -27.0296875 21.75257812 -27.05957031 20.85742188 C-27.1175686 14.9148276 -26.27547932 10.09717831 -22.65917969 5.24023438 C-15.66636778 -0.26084445 -8.49098979 0.02399714 0 0 Z " fill="#1c2a90" transform="translate(142.6591796875,22.759765625)"/>
<path d="M0 0 C9.57 0 19.14 0 29 0 C33.46401705 13.83228953 37.35678011 27.81059484 41.21313477 41.82250977 C42.13775007 45.18155001 43.06843155 48.53887746 44.00063801 51.89581776 C44.89591193 55.12357562 45.78554938 58.35287911 46.67578125 61.58203125 C47.17722404 63.38653496 47.17722404 63.38653496 47.688797 65.22749329 C47.99299057 66.33682724 48.29718414 67.44616119 48.6105957 68.58911133 C49.01433159 70.05227531 49.01433159 70.05227531 49.42622375 71.54499817 C50 74 50 74 50 77 C43.4 77 36.8 77 30 77 C27 67.375 27 67.375 27 64 C19.08 64 11.16 64 3 64 C2.01 68.29 1.02 72.58 0 77 C-6.93 77 -13.86 77 -21 77 C-17.5446981 62.83416911 -13.73856879 48.76589742 -9.91723633 34.6953125 C-8.98668319 31.26863646 -8.059563 27.84104162 -7.13330555 24.41320229 C-6.24319507 21.12128449 -5.34995395 17.83021861 -4.45703125 14.5390625 C-4.12476028 13.30902496 -3.79248932 12.07898743 -3.45014954 10.81167603 C-3.1428038 9.68224579 -2.83545807 8.55281555 -2.51879883 7.38916016 C-2.24884598 6.39373199 -1.97889313 5.39830383 -1.70075989 4.37271118 C-1 2 -1 2 0 0 Z M14 19 C11.69 28.57 9.38 38.14 7 48 C11.95 48 16.9 48 22 48 C21.36927368 41.86282032 20.14897968 36.08239308 18.5625 30.125 C18.34529297 29.27164063 18.12808594 28.41828125 17.90429688 27.5390625 C17.68966797 26.724375 17.47503906 25.9096875 17.25390625 25.0703125 C17.06127197 24.33570801 16.8686377 23.60110352 16.67016602 22.84423828 C16.07025042 20.78819193 16.07025042 20.78819193 14 19 Z " fill="#1c2a90" transform="translate(696,23)"/>
<path d="M0 0 C9.57 0 19.14 0 29 0 C31.80273438 10.00976562 34.60546875 20.01953125 37.40820312 30.02929688 C37.71253265 31.11602692 38.01686218 32.20275696 38.33041382 33.32241821 C38.94698307 35.52477724 39.56321337 37.72723118 40.17910767 39.92977905 C41.78703737 45.67828988 43.40158581 51.42482255 45.02685547 57.16845703 C45.35201645 58.32072281 45.67717743 59.47298859 46.01219177 60.66017151 C46.63578094 62.86937695 47.26140398 65.07800955 47.88929749 67.28599548 C48.30555641 68.76296654 48.30555641 68.76296654 48.73022461 70.26977539 C48.97614853 71.13760147 49.22207245 72.00542755 49.47544861 72.89955139 C50 75 50 75 50 77 C43.4 77 36.8 77 30 77 C27 68 27 68 27 64 C19.08 64.33 11.16 64.66 3 65 C2.01 68.96 1.02 72.92 0 77 C-6.93 77 -13.86 77 -21 77 C-17.60686235 61.88673335 -13.50701339 46.98519937 -9.36663818 32.06268311 C-8.61952149 29.36593662 -7.87641185 26.66809252 -7.13330555 23.97023869 C-6.24339882 20.74127269 -5.35013494 17.51323951 -4.45703125 14.28515625 C-4.12476028 13.08012955 -3.79248932 11.87510284 -3.45014954 10.63356018 C-3.1428038 9.52737839 -2.83545807 8.42119659 -2.51879883 7.28149414 C-2.24884598 6.30684708 -1.97889313 5.33220001 -1.70075989 4.32801819 C-1 2 -1 2 0 0 Z M14 19 C12.99999049 22.80778697 12.00315764 26.61638973 11.00927734 30.42578125 C10.50396693 32.35981689 9.99613392 34.29319287 9.48828125 36.2265625 C9.01455078 38.04414062 9.01455078 38.04414062 8.53125 39.8984375 C8.23798828 41.01911621 7.94472656 42.13979492 7.64257812 43.29443359 C6.92297516 45.86084093 6.92297516 45.86084093 7 48 C11.95 48 16.9 48 22 48 C21.3850185 41.39867961 19.82360905 35.34537846 17.9375 29 C17.51500977 27.55173828 17.51500977 27.55173828 17.08398438 26.07421875 C16.39475721 23.71449184 15.69999989 21.35654915 15 19 C14.67 19 14.34 19 14 19 Z " fill="#1c2a90" transform="translate(841,23)"/>
<path d="M0 0 C1.20970459 0.00523682 2.41940918 0.01047363 3.66577148 0.01586914 C4.97094727 0.0190918 6.27612305 0.02231445 7.62084961 0.02563477 C9.00952213 0.03399138 10.39819401 0.04245634 11.78686523 0.05102539 C13.17944179 0.05603873 14.57202005 0.06060193 15.96459961 0.06469727 C19.38456394 0.07653105 22.80444367 0.09301659 26.22436523 0.11352539 C28.83804724 9.56080925 31.44623088 19.00959198 34.0473938 28.46033096 C35.25537263 32.84857386 36.46524364 37.23627667 37.67944336 41.62280273 C38.85100378 45.85555693 40.01758781 50.08965366 41.1807251 54.32472992 C41.62549652 55.94075138 42.07206295 57.55627991 42.52044678 59.1713028 C43.14785738 61.4323429 43.76887979 63.69504682 44.38842773 65.95825195 C44.66894989 66.96058617 44.66894989 66.96058617 44.95513916 67.98316956 C45.82942379 71.20287574 46.22436523 73.73531879 46.22436523 77.11352539 C39.95436523 77.11352539 33.68436523 77.11352539 27.22436523 77.11352539 C24.22436523 69.11352539 24.22436523 69.11352539 23.22436523 65.11352539 C15.30436523 64.78352539 7.38436523 64.45352539 -0.77563477 64.11352539 C-1.10563477 66.75352539 -1.43563477 69.39352539 -1.77563477 72.11352539 C-2.43563477 73.76352539 -3.09563477 75.41352539 -3.77563477 77.11352539 C-10.37563477 77.11352539 -16.97563477 77.11352539 -23.77563477 77.11352539 C-22.19395616 68.52615778 -19.98296332 60.14952517 -17.67797852 51.73461914 C-17.27947081 50.27162459 -16.88116394 48.80857531 -16.48304749 47.34547424 C-15.65397922 44.30165222 -14.82249919 41.25850251 -13.98925781 38.21582031 C-12.91976608 34.30965887 -11.85644145 30.40184898 -10.79486752 26.49352932 C-9.97634878 23.48268748 -9.15462645 20.4727274 -8.33191109 17.46302986 C-7.93818275 16.02114034 -7.54546295 14.57897504 -7.15376091 13.13653374 C-6.60902441 11.13243062 -6.05999462 9.12955411 -5.50976562 7.12695312 C-5.19825058 5.98685287 -4.88673553 4.84675262 -4.56578064 3.67210388 C-3.47565453 0.14215669 -3.47565453 0.14215669 0 0 Z M11.22436523 18.11352539 C10.05177908 22.54948298 8.88730912 26.98753107 7.72436523 31.42602539 C7.39049805 32.68866211 7.05663086 33.95129883 6.71264648 35.25219727 C6.39682617 36.46069336 6.08100586 37.66918945 5.75561523 38.91430664 C5.46235352 40.02974854 5.1690918 41.14519043 4.86694336 42.29443359 C4.11324632 45.11912189 4.11324632 45.11912189 4.22436523 48.11352539 C9.17436523 48.11352539 14.12436523 48.11352539 19.22436523 48.11352539 C17.5991874 37.91922807 14.92588894 28.06379402 12.22436523 18.11352539 C11.89436523 18.11352539 11.56436523 18.11352539 11.22436523 18.11352539 Z " fill="#1c2a90" transform="translate(1723.775634765625,22.886474609375)"/>
<path d="M0 0 C6.27 0 12.54 0 19 0 C19.01981934 1.54905029 19.03963867 3.09810059 19.06005859 4.6940918 C19.13615497 10.44360556 19.22486668 16.1928676 19.31738281 21.94213867 C19.35565578 24.43004383 19.39051157 26.91800401 19.421875 29.40600586 C19.46756142 32.98311012 19.52555108 36.55983617 19.5859375 40.13671875 C19.59748871 41.24834885 19.60903992 42.35997894 19.62094116 43.5052948 C19.64081085 44.54599625 19.66068054 45.58669769 19.68115234 46.65893555 C19.69447601 47.5716069 19.70779968 48.48427826 19.7215271 49.42460632 C20.03005425 52.27794997 20.72691827 54.43247848 22 57 C24.85195222 58.42597611 27.32461175 58.1320252 30.5 58.125 C31.6653125 58.12757812 32.830625 58.13015625 34.03125 58.1328125 C36.92930786 58.2048431 36.92930786 58.2048431 39 57 C40.00685387 53.97943839 40.15372686 51.86445386 40.20532227 48.70239258 C40.22526749 47.62149857 40.24521271 46.54060455 40.26576233 45.42695618 C40.28247482 44.26125595 40.29918732 43.09555573 40.31640625 41.89453125 C40.33718735 40.70018967 40.35796844 39.50584808 40.37937927 38.27531433 C40.44484276 34.45443557 40.5037451 30.63348724 40.5625 26.8125 C40.60568824 24.22460214 40.64930263 21.63671135 40.69335938 19.04882812 C40.80052095 12.69929032 40.90179764 6.34968244 41 0 C47.27 0 53.54 0 60 0 C60.09063997 7.94563957 60.16390979 15.89087214 60.20724869 23.83689117 C60.2280571 27.52719955 60.25624919 31.21713358 60.30175781 34.90722656 C60.34545943 38.47342061 60.36918776 42.03925631 60.37950897 45.60569763 C60.39041494 47.61750112 60.42160191 49.62916196 60.45318604 51.64074707 C60.45508828 59.45237528 60.11287681 65.48985564 54.62310791 71.5098877 C46.93350358 78.51684188 35.67608717 78.32704275 25.81103516 77.90673828 C17.98830599 77.35489825 11.61830824 76.37701612 5 72 C0.68661701 66.55151622 -0.12735874 62.66050069 -0.11352539 55.85449219 C-0.11344986 54.61350769 -0.11337433 53.37252319 -0.11329651 52.09393311 C-0.10819031 50.74491333 -0.10297432 49.39589396 -0.09765625 48.046875 C-0.09579024 46.66253714 -0.0943672 45.27819862 -0.09336853 43.89385986 C-0.08955773 40.25738692 -0.07973975 36.62095418 -0.06866455 32.98449707 C-0.0584195 29.27092024 -0.05386429 25.5573369 -0.04882812 21.84375 C-0.03811615 14.56247959 -0.02053103 7.28125056 0 0 Z " fill="#1c2a90" transform="translate(336,23)"/>
<path d="M0 0 C6.27 0 12.54 0 19 0 C19.01981934 1.58458008 19.03963867 3.16916016 19.06005859 4.80175781 C19.13608277 10.67610674 19.22480545 16.55020694 19.31738281 22.42431641 C19.35568566 24.96756076 19.3905362 27.51085952 19.421875 30.05419922 C19.46749662 33.70820577 19.52549678 37.36183727 19.5859375 41.015625 C19.59748871 42.15429016 19.60903992 43.29295532 19.62094116 44.46612549 C19.64081085 45.52692322 19.66068054 46.58772095 19.68115234 47.68066406 C19.69447601 48.61332092 19.70779968 49.54597778 19.7215271 50.50689697 C20.01541064 53.13796791 20.58007029 54.77703418 22 57 C24.85195222 58.42597611 27.32461175 58.1320252 30.5 58.125 C31.6653125 58.12757812 32.830625 58.13015625 34.03125 58.1328125 C36.92930786 58.2048431 36.92930786 58.2048431 39 57 C40.00685387 53.97943839 40.15372686 51.86445386 40.20532227 48.70239258 C40.22526749 47.62149857 40.24521271 46.54060455 40.26576233 45.42695618 C40.28247482 44.26125595 40.29918732 43.09555573 40.31640625 41.89453125 C40.33718735 40.70018967 40.35796844 39.50584808 40.37937927 38.27531433 C40.44484276 34.45443557 40.5037451 30.63348724 40.5625 26.8125 C40.60568824 24.22460214 40.64930263 21.63671135 40.69335938 19.04882812 C40.80052095 12.69929032 40.90179764 6.34968244 41 0 C47.27 0 53.54 0 60 0 C60.0907103 7.79794563 60.16395029 15.59559799 60.20724869 23.39392757 C60.22803981 27.01583037 60.25619947 30.63735055 60.30175781 34.2590332 C60.34552219 37.760394 60.36920069 41.26138898 60.37950897 44.7630024 C60.3903937 46.73542992 60.42157019 48.70771222 60.45318604 50.67991638 C60.45511859 58.48746034 59.95307083 65.47238548 54.62310791 71.57701111 C46.9629371 78.53350418 35.61687586 78.32452003 25.81103516 77.90673828 C17.98830599 77.35489825 11.61830824 76.37701612 5 72 C0.68661701 66.55151622 -0.12735874 62.66050069 -0.11352539 55.85449219 C-0.11344986 54.61350769 -0.11337433 53.37252319 -0.11329651 52.09393311 C-0.10819031 50.74491333 -0.10297432 49.39589396 -0.09765625 48.046875 C-0.09579024 46.66253714 -0.0943672 45.27819862 -0.09336853 43.89385986 C-0.08955773 40.25738692 -0.07973975 36.62095418 -0.06866455 32.98449707 C-0.0584195 29.27092024 -0.05386429 25.5573369 -0.04882812 21.84375 C-0.03811615 14.56247959 -0.02053103 7.28125056 0 0 Z " fill="#1c2a90" transform="translate(753,23)"/>
<path d="M0 0 C1.27101563 -0.01546875 2.54203125 -0.0309375 3.8515625 -0.046875 C12.36977927 -0.01138243 18.36306025 0.69921497 24.75 6.75 C28.87075333 13.72358257 28.57183335 20.62666584 28.375 28.5 C21.775 28.5 15.175 28.5 8.375 28.5 C7.715 26.19 7.055 23.88 6.375 21.5 C2.58992553 18.59517541 -2.06778793 18.98010415 -6.625 19.5 C-9.64481101 20.49195973 -9.64481101 20.49195973 -11.625 22.5 C-13.06587797 27.87399224 -12.84717371 33.35148065 -12.875 38.875 C-12.895625 39.89078125 -12.91625 40.9065625 -12.9375 41.953125 C-12.96845556 47.91207078 -12.58979323 52.27563134 -9.625 57.5 C-7.04379934 58.79060033 -5.13080171 58.63272333 -2.25 58.625 C-1.29351563 58.62757812 -0.33703125 58.63015625 0.6484375 58.6328125 C3.61998873 58.57691192 3.61998873 58.57691192 7.375 57.5 C7.87 52.55 7.87 52.55 8.375 47.5 C14.975 47.5 21.575 47.5 28.375 47.5 C28.89771158 65.62066823 28.89771158 65.62066823 23.79296875 71.2421875 C15.15465356 79.10888847 5.00541103 78.79044341 -6.125 78.3125 C-7.01058594 78.29380859 -7.89617187 78.27511719 -8.80859375 78.25585938 C-15.54300934 77.9740226 -21.97901641 76.65045645 -27.21655273 72.12475586 C-34.71697102 63.76722466 -33.83534613 51.91834333 -33.86523438 41.38647461 C-33.87489545 39.33470402 -33.90596446 37.28395653 -33.9375 35.23242188 C-34.01357186 25.83992236 -33.93520472 15.33404609 -28.0625 7.5 C-20.43730923 -0.14947114 -10.14914691 -0.12427527 0 0 Z " fill="#1c2a90" transform="translate(1274.625,22.5)"/>
<path d="M0 0 C16.83 0 33.66 0 51 0 C51 5.94 51 11.88 51 18 C40.77 18 30.54 18 20 18 C20 22.29 20 26.58 20 31 C29.57 31 39.14 31 49 31 C49 35.95 49 40.9 49 46 C39.43 46 29.86 46 20 46 C20 50.29 20 54.58 20 59 C30.56 59 41.12 59 52 59 C52 64.94 52 70.88 52 77 C34.84 77 17.68 77 0 77 C0 51.59 0 26.18 0 0 Z " fill="#1c2a90" transform="translate(1178,23)"/>
<path d="M0 0 C16.83 0 33.66 0 51 0 C51 5.94 51 11.88 51 18 C40.77 18 30.54 18 20 18 C20 22.29 20 26.58 20 31 C29.57 31 39.14 31 49 31 C49 35.95 49 40.9 49 46 C39.43 46 29.86 46 20 46 C20 50.29 20 54.58 20 59 C30.56 59 41.12 59 52 59 C52 64.94 52 70.88 52 77 C34.84 77 17.68 77 0 77 C0 51.59 0 26.18 0 0 Z " fill="#1c2a90" transform="translate(1013,23)"/>
<path d="M0 0 C18.48 0 36.96 0 56 0 C56 6.27 56 12.54 56 19 C50.06 19 44.12 19 38 19 C38 38.14 38 57.28 38 77 C31.4 77 24.8 77 18 77 C18 57.86 18 38.72 18 19 C12.06 19 6.12 19 0 19 C0 12.73 0 6.46 0 0 Z " fill="#1c2a90" transform="translate(404,23)"/>
<path d="M0 0 C18.15 0 36.3 0 55 0 C55 6.27 55 12.54 55 19 C49.06 19 43.12 19 37 19 C37 38.14 37 57.28 37 77 C30.4 77 23.8 77 17 77 C17 57.86 17 38.72 17 19 C11.39 19 5.78 19 0 19 C0 12.73 0 6.46 0 0 Z " fill="#1c2a90" transform="translate(1115,23)"/>
<path d="M0 0 C18.48 0 36.96 0 56 0 C56 6.27 56 12.54 56 19 C49.73 19 43.46 19 37 19 C37 38.14 37 57.28 37 77 C30.73 77 24.46 77 18 77 C18 57.86 18 38.72 18 19 C12.06 19 6.12 19 0 19 C0 12.73 0 6.46 0 0 Z " fill="#1c2a90" transform="translate(272,23)"/>
<path d="M0 0 C18.48 0 36.96 0 56 0 C56 6.27 56 12.54 56 19 C49.73 19 43.46 19 37 19 C37 38.14 37 57.28 37 77 C30.73 77 24.46 77 18 77 C18 57.86 18 38.72 18 19 C12.06 19 6.12 19 0 19 C0 12.73 0 6.46 0 0 Z " fill="#1c2a90" transform="translate(181,23)"/>
<path d="M0 0 C2.72326218 3.3070733 4.38978964 6.76254314 6.13671875 10.6640625 C6.56317436 11.61398575 6.56317436 11.61398575 6.99824524 12.58309937 C7.59476411 13.91499184 8.18881239 15.24799328 8.78051758 16.58203125 C9.68884643 18.62803281 10.60651823 20.66965278 11.52539062 22.7109375 C16 32.72569768 16 32.72569768 16 35 C7.46764053 37.76748595 -1.06821335 40.52383039 -9.60874557 43.26599216 C-13.57428894 44.53961978 -17.53851845 45.81706027 -21.5 47.10327148 C-25.32262529 48.34424339 -29.14836462 49.57512383 -32.97647858 50.7990551 C-34.43687772 51.26792897 -35.89611546 51.74043614 -37.35414886 52.21661568 C-39.39558436 52.88264541 -41.44075657 53.53567076 -43.48730469 54.18579102 C-44.65090515 54.56107437 -45.81450562 54.93635773 -47.0133667 55.32301331 C-49.92005716 55.98187918 -51.33363536 56.28937227 -54 55 C-55.48266581 52.38091967 -56.67012707 49.94803331 -57.8125 47.1875 C-58.13669922 46.46240234 -58.46089844 45.73730469 -58.79492188 44.99023438 C-61.03840491 39.73942719 -61.03840491 39.73942719 -60.89404297 36.95996094 C-59.57962795 34.07844162 -57.73525771 33.31208786 -54.98828125 31.78515625 C-53.40200928 30.88893555 -53.40200928 30.88893555 -51.78369141 29.97460938 C-50.06545166 29.02811523 -50.06545166 29.02811523 -48.3125 28.0625 C-47.1311604 27.39927745 -45.95066618 26.73454696 -44.77099609 26.06835938 C-42.96238464 25.04718753 -41.15332095 24.02694562 -39.34155273 23.01138306 C-33.54954509 19.76344919 -27.83165382 16.39547153 -22.125 13 C-20.34390669 11.94374615 -18.56266338 10.8877452 -16.78125 9.83203125 C-15.96527344 9.34814941 -15.14929687 8.86426758 -14.30859375 8.36572266 C-9.55338762 5.552628 -4.77892559 2.77258341 0 0 Z " fill="#1c2a90" transform="translate(1678,339)"/>
<path d="M0 0 C6.6 0 13.2 0 20 0 C20 19.14 20 38.28 20 58 C29.24 58 38.48 58 48 58 C48 64.27 48 70.54 48 77 C32.16 77 16.32 77 0 77 C0 51.59 0 26.18 0 0 Z " fill="#1c2a90" transform="translate(1470,23)"/>
<path d="M0 0 C6.6 0 13.2 0 20 0 C20 25.41 20 50.82 20 77 C13.4 77 6.8 77 0 77 C0 51.59 0 26.18 0 0 Z " fill="#1c2a90" transform="translate(1,23)"/>
<path d="M0 0 C6.27 0 12.54 0 19 0 C19 25.41 19 50.82 19 77 C12.73 77 6.46 77 0 77 C0 51.59 0 26.18 0 0 Z " fill="#1c2a90" transform="translate(1674,23)"/>
<path d="M0 0 C6.27 0 12.54 0 19 0 C19 25.41 19 50.82 19 77 C12.73 77 6.46 77 0 77 C0 51.59 0 26.18 0 0 Z " fill="#1c2a90" transform="translate(245,23)"/>
<path d="M0 0 C1.16796875 2.50390625 1.16796875 2.50390625 2.1875 5.5625 C2.53167969 6.57441406 2.87585938 7.58632812 3.23046875 8.62890625 C3.48441406 9.41136719 3.73835937 10.19382812 4 11 C-0.92394743 13.02508903 -5.86412876 15.01158787 -10.875 16.8125 C-11.57367187 17.06644531 -12.27234375 17.32039063 -12.9921875 17.58203125 C-15.49376154 18.10278694 -16.7019412 18.16826002 -19 17 C-20.25 13.9375 -20.25 13.9375 -21 11 C-18.07380821 8.96239467 -15.13240552 6.94794274 -12.1875 4.9375 C-11.35412109 4.35677734 -10.52074219 3.77605469 -9.66210938 3.17773438 C-8.85966797 2.63310547 -8.05722656 2.08847656 -7.23046875 1.52734375 C-6.49207764 1.01937256 -5.75368652 0.51140137 -4.99291992 -0.01196289 C-3 -1 -3 -1 0 0 Z " fill="#1c2a90" transform="translate(864,1)"/>
</svg>
